<svg width="60" height="61" viewBox="0 0 60 61" fill="none" xmlns="http://www.w3.org/2000/svg">
<path d="M56.69 0.82782H3.31C1.4825 0.82782 0 2.31169 0 4.14088V57.5703C0 59.402 1.4825 60.8834 3.31 60.8834H32.045V37.6269H24.2225V28.566H32.045V21.8723C32.045 14.1176 36.78 9.89871 43.6925 9.89871C47.005 9.89871 49.8525 10.1414 50.6825 10.2515V18.359H45.88C42.13 18.359 41.4 20.1632 41.4 22.7906V28.5735H50.36L49.1975 37.6569H41.4V60.8834H56.6875C58.52 60.8834 60 59.402 60 57.5703V4.14088C60 2.31169 58.52 0.82782 56.69 0.82782Z" fill="#593D2D"/>
</svg>
