<svg width="60" height="61" viewBox="0 0 60 61" fill="none" xmlns="http://www.w3.org/2000/svg">
<path d="M48.4045 0.82782H11.5955C5.20171 0.82782 0 6.03314 0 12.4329V24.6921V49.2771C0 55.6768 5.20171 60.8822 11.5955 60.8822H48.4057C54.7995 60.8822 60 55.6768 60 49.2771V24.6909V12.4317C59.9988 6.03192 54.7983 0.82782 48.4045 0.82782ZM51.7303 7.74845L53.0567 7.74361V9.06523V17.9229L42.9208 17.9556L42.8857 7.77753L51.7303 7.74845ZM21.4362 24.6909C23.3581 22.0295 26.4757 20.2839 30 20.2839C33.5243 20.2839 36.6419 22.0295 38.5614 24.6909C39.8116 26.428 40.5608 28.5528 40.5608 30.8544C40.5608 36.6824 35.8189 41.4237 29.9988 41.4237C24.175 41.4237 19.438 36.6824 19.438 30.8544C19.4392 28.5528 20.186 26.428 21.4362 24.6909ZM54.1532 49.2759C54.1532 52.4509 51.5742 55.03 48.4045 55.03H11.5955C8.42464 55.03 5.84557 52.4509 5.84557 49.2759V24.6909H14.8015C14.0282 26.5952 13.5937 28.6751 13.5937 30.8544C13.5937 39.9071 20.9521 47.2771 30 47.2771C39.0467 47.2771 46.4051 39.9071 46.4051 30.8544C46.4051 28.6751 45.9682 26.5952 45.1949 24.6909H54.1532V49.2759Z" fill="#593D2D"/>
</svg>
