<svg width="22" height="22" viewBox="0 0 22 22" fill="none" xmlns="http://www.w3.org/2000/svg">
<path d="M21 15.92V18.92C21.0011 19.1985 20.9441 19.4742 20.8325 19.7294C20.7209 19.9846 20.5573 20.2137 20.352 20.402C20.1468 20.5902 19.9045 20.7336 19.6407 20.8228C19.3769 20.912 19.0974 20.9451 18.82 20.92C15.7428 20.5856 12.787 19.5342 10.19 17.85C7.77383 16.3147 5.72534 14.2662 4.19 11.85C2.49998 9.24121 1.44825 6.271 1.12 3.18001C1.0951 2.90352 1.12803 2.62487 1.21669 2.36181C1.30536 2.09874 1.44782 1.85701 1.635 1.65201C1.82214 1.4469 2.04993 1.283 2.30387 1.17075C2.55782 1.0585 2.83235 1.00035 3.11 1.00001H6.11C6.59531 0.995229 7.0658 1.16708 7.43376 1.48354C7.80173 1.79999 8.04208 2.23945 8.11 2.72001C8.23663 3.68007 8.47145 4.62273 8.81 5.53001C8.94455 5.88793 8.97367 6.27692 8.89391 6.65089C8.81415 7.02485 8.62887 7.36812 8.36 7.64001L7.09 8.91001C8.51356 11.4136 10.5865 13.4865 13.09 14.91L14.36 13.64C14.6319 13.3711 14.9752 13.1859 15.3491 13.1061C15.7231 13.0263 16.1121 13.0555 16.47 13.19C17.377 13.529 18.32 13.763 19.28 13.89C19.7658 13.9585 20.2094 14.2032 20.5265 14.5775C20.8437 14.9518 21.0122 15.4296 21 15.92Z" stroke="#593D2D" stroke-width="2" stroke-linejoin="round"/>
</svg>
