<svg width="60" height="61" viewBox="0 0 60 61" fill="none" xmlns="http://www.w3.org/2000/svg">
<path d="M50 0.82782H10C4.4775 0.82782 0 5.30947 0 10.8371V50.8741C0 56.4017 4.4775 60.8834 10 60.8834H50C55.5225 60.8834 60 56.4017 60 50.8741V10.8371C60 5.30947 55.5225 0.82782 50 0.82782ZM52.5 24.5998C47.545 24.5998 43.8937 23.236 41.25 21.2279V38.9881C41.25 46.9217 34.8013 53.3764 26.875 53.3764C18.9487 53.3764 12.5 46.9217 12.5 38.9881C12.5 31.0545 18.9487 24.5998 26.875 24.5998H29.375V30.8556H26.875C22.395 30.8556 18.75 34.504 18.75 38.9881C18.75 43.4723 22.395 47.1206 26.875 47.1206C31.355 47.1206 35 43.4723 35 38.9881V8.33476H41.25C41.2725 9.99005 41.9162 18.344 52.5 18.344V24.5998Z" fill="#593D2D"/>
</svg>
